<?xml version="1.0" encoding="UTF-8"?>
<svg version="1.1" viewBox="0 0 1024 1024" width="1024" height="1024" xmlns="http://www.w3.org/2000/svg">
<path transform="translate(488,108)" d="m0 0h47l30 3 28 5 24 6 30 10 21 9 25 12 24 14 22 15 14 11 13 11 12 11 17 17 9 11 8 9 14 19 10 15 9 15 14 27 9 20 10 27 8 29 6 29 3 24 1 14v46l-3 32-6 33-8 30-11 31-9 20-8 16-8 15-13 21-10 14-10 13-9 11-9 10-7 8-17 17-11 9-9 8-16 12-21 14-15 9-25 13-19 8-25 9-25 7-30 6-36 4h-15l-13-12-11-14-10-15-9-19-6-19-3-16-1-10v-20l3-22 5-17 7-17 9-15 10-14 13-15 12-12 8-7 17-14 18-13 16-11 57-38 14-10 13-10 13-11 14-13 7-8 13-16 10-15 10-17 10-21 7-20 5-20 3-20 2-32 2 3 8 26 5 22 3 24v31l-3 23-5 21-7 21-12 25-11 18-10 13-9 10-7 8-13 12-17 13-17 12-26 16-38 24-16 11-16 12-13 11-12 11-11 12-11 15-10 17-8 20-5 21-1 8v42h24l30-2 24-4 28-7 24-8 30-13 24-13 24-16 17-13 15-13 15-14 15-16 9-11 14-18 10-15 14-24 12-24 12-31 8-27 5-23 4-25 2-23v-44l-3-30-6-31-6-23-10-28-9-20-14-27-18-27-10-13-11-13-9-10-22-22-11-9-14-11-24-16-21-12-29-14-28-10-25-7-25-5-23-3-13-1h-45l-28 3-31 6-21 6-21 7-23 10-16 8-17 9-17 11-17 12-11 9-14 12-19 19-7 8-13 16-13 18-15 25-11 21-10 24-10 30-6 25-5 29-2 20v55l3 28 6 31 9 31 9 24 12 26 11 20 13 20 11 15 8 10 12 14 7 7 7 8 20 18 14 11 18 13 21 13 24 13 10 5 9 10 7 8 9 9 11 9 12 9-3 1-24-7-28-10-28-13-18-10-22-14-14-10-14-11-13-11-13-12-14-14-9-11-11-13-13-18-10-15-9-15-10-18-10-21-11-28-8-25-7-29-5-32-2-25v-34l3-35 5-29 8-32 10-29 9-21 11-23 14-24 13-19 13-17 11-13 11-12 19-19 8-7 17-14 18-13 21-13 22-12 19-9 23-9 27-9 30-7 26-4z" fill="#D4AF37"/>
<path transform="translate(608,197)" d="m0 0 2 1-2 15-6 15-9 13-13 13-14 10-19 9-12 4h-4v2l4 2 16 16 12 17 10 21 5 18 1 6v24l-3 15-6 16-9 16-8 10-9 10-14 14-17 13-36 26-17 12-18 13-16 13-11 9-9 9h-2v2l-5 4-7 8-11 13-12 18-12 23-8 22-5 21-2 15v32l4 24 7 25 3 11-12-12-9-11-11-14-11-17-11-21-7-19-5-19-3-22v-25l2-17 4-19 7-20 10-21 10-16 12-16 11-13 11-11 7-8 8-7 14-13 8-7 12-11 9-9 7-10 5-11 3-13v-12l-3-11-4-8-9-8-12-6-13-4-12-2h-18l-17 3-18 6-15 8-13 11h-2l1-16 4-13 8-16 8-10 9-8 15-9 18-8 10-4-13 3 2-6 9-17 9-11 9-9 14-10 17-9 16-6 14-3 8-1h31l37 4h37l17-3 12-4 13-7 10-9z" fill="#D4AF37"/>
<path transform="translate(691,228)" d="m0 0 4 4 11 17 10 18 10 25 5 20 2 16v30l-3 21-5 20-7 20-11 23-12 19-10 13-11 13-11 12-12 12-8 7-15 12-17 12-18 12-22 14-19 12-33 22-13 10-11 9-10 9-15 15-13 17-11 18-9 19-6 18-4 19-1 9v30l3 22 6 23 10 25 5 11-4-2-8-8-7-8-12-14-12-17-12-23-8-22-5-23-1-9v-32l3-20 5-18 9-21 8-14 11-16 9-11 18-20 15-14 11-9 16-13 17-13 18-13 17-12 18-13 19-14 16-13 11-9 11-10 8-7 25-25 9-11 11-15 12-21 10-25 6-25 2-16v-35l-4-26z" fill="#D4AF37"/>
<path transform="translate(411,275)" d="m0 0h11l8 5 4 6 1 4v8l-4 8-7 6-5 2h-11l-8-4-4-6-1-3v-13l5-8 7-4z" fill="#F8F8F8"/>
</svg>
